<svg width="25" height="24" viewBox="0 0 25 24" fill="none" xmlns="http://www.w3.org/2000/svg">
<path d="M3.30025 11.2012L10.5 3.83217C10.6501 3.67853 10.8537 3.59222 11.066 3.59222C11.2783 3.59222 11.4819 3.67853 11.632 3.83217C11.7821 3.9858 11.8664 4.19418 11.8664 4.41145C11.8664 4.62873 11.7821 4.8371 11.632 4.99074L5.79716 10.9617L21.4657 10.9617C21.6778 10.9617 21.8813 11.0479 22.0313 11.2015C22.1813 11.355 22.2656 11.5633 22.2656 11.7805C22.2656 11.9976 22.1813 12.2059 22.0313 12.3594C21.8813 12.513 21.6778 12.5992 21.4657 12.5992L5.79716 12.5992L11.632 18.5702C11.7821 18.7238 11.8664 18.9322 11.8664 19.1495C11.8664 19.3667 11.7821 19.5751 11.632 19.7287C11.4819 19.8824 11.2783 19.9687 11.066 19.9687C10.8537 19.9687 10.6501 19.8824 10.5 19.7287L3.30025 12.3597C3.22587 12.2837 3.16686 12.1934 3.1266 12.094C3.08634 11.9946 3.06562 11.8881 3.06562 11.7805C3.06562 11.6729 3.08634 11.5663 3.1266 11.4669C3.16686 11.3675 3.22587 11.2772 3.30025 11.2012Z" fill="white"/>
</svg>
