<svg width="25" height="24" viewBox="0 0 25 24" fill="none" xmlns="http://www.w3.org/2000/svg">
<path d="M21.6998 12.3597L14.5 19.7287C14.3499 19.8823 14.1463 19.9686 13.934 19.9686C13.7217 19.9686 13.5181 19.8823 13.368 19.7287C13.2179 19.575 13.1336 19.3667 13.1336 19.1494C13.1336 18.9321 13.2179 18.7238 13.368 18.5701L19.2028 12.5992H3.53435C3.32218 12.5992 3.11871 12.5129 2.96868 12.3594C2.81866 12.2058 2.73438 11.9976 2.73438 11.7804C2.73438 11.5632 2.81866 11.355 2.96868 11.2014C3.11871 11.0479 3.32218 10.9616 3.53435 10.9616H19.2028L13.368 4.99068C13.2179 4.83705 13.1336 4.62867 13.1336 4.4114C13.1336 4.19412 13.2179 3.98575 13.368 3.83211C13.5181 3.67847 13.7217 3.59216 13.934 3.59216C14.1463 3.59216 14.3499 3.67847 14.5 3.83211L21.6998 11.2011C21.7741 11.2772 21.8331 11.3675 21.8734 11.4669C21.9137 11.5663 21.9344 11.6728 21.9344 11.7804C21.9344 11.888 21.9137 11.9945 21.8734 12.0939C21.8331 12.1933 21.7741 12.2836 21.6998 12.3597Z" fill="white"/>
</svg>
