<svg width="25" height="24" viewBox="0 0 25 24" fill="none" xmlns="http://www.w3.org/2000/svg">
<path d="M11.9434 19.5584L4.57442 12.3586C4.42078 12.2085 4.33447 12.0049 4.33447 11.7926C4.33447 11.5803 4.42078 11.3767 4.57442 11.2266C4.72805 11.0765 4.93643 10.9922 5.1537 10.9922C5.37097 10.9922 5.57935 11.0765 5.73299 11.2266L11.7039 17.0614C12.5227 17.8803 13.3415 17.0614 13.3415 17.0614L19.3124 11.2266C19.4661 11.0765 19.6744 10.9922 19.8917 10.9922C20.109 10.9922 20.3174 11.0765 20.471 11.2266C20.6246 11.3767 20.7109 11.5803 20.7109 11.7926C20.7109 12.0049 20.6246 12.2085 20.471 12.3586L13.102 19.5584C13.0259 19.6327 12.9356 19.6917 12.8362 19.732C12.7368 19.7723 12.6303 19.793 12.5227 19.793C12.4151 19.793 12.3086 19.7723 12.2092 19.732C12.1098 19.6917 12.0195 19.6327 11.9434 19.5584Z" fill="white"/>
<path d="M11.9434 13.5584L4.57442 6.35859C4.42078 6.20848 4.33447 6.00489 4.33447 5.79261C4.33447 5.58032 4.42078 5.37673 4.57442 5.22662C4.72805 5.07652 4.93643 4.99219 5.1537 4.99219C5.37097 4.99219 5.57935 5.07652 5.73299 5.22662L11.7039 11.0614C12.5227 11.8803 13.3415 11.0614 13.3415 11.0614L19.3124 5.22662C19.4661 5.07652 19.6744 4.99219 19.8917 4.99219C20.109 4.99219 20.3174 5.07652 20.471 5.22662C20.6246 5.37673 20.7109 5.58032 20.7109 5.79261C20.7109 6.00489 20.6246 6.20848 20.471 6.35859L13.102 13.5584C13.0259 13.6327 12.9356 13.6917 12.8362 13.732C12.7368 13.7723 12.6303 13.793 12.5227 13.793C12.4151 13.793 12.3086 13.7723 12.2092 13.732C12.1098 13.6917 12.0195 13.6327 11.9434 13.5584Z" fill="white"/>
</svg>
