<svg width="25" height="24" viewBox="0 0 25 24" fill="none" xmlns="http://www.w3.org/2000/svg">
<path fill-rule="evenodd" clip-rule="evenodd" d="M1.16811 0.494286C1.83759 -0.175178 2.92301 -0.175178 3.59249 0.494286L12.666 9.56786L21.7396 0.494286C22.409 -0.175178 23.4945 -0.175178 24.1639 0.494286C24.8334 1.16377 24.8334 2.24919 24.1639 2.91867L15.0904 11.9922L24.1639 21.0658C24.8334 21.7352 24.8334 22.8207 24.1639 23.4901C23.4945 24.1595 22.409 24.1595 21.7396 23.4901L12.666 14.4166L3.59249 23.4901C2.92301 24.1595 1.83759 24.1595 1.16811 23.4901C0.49865 22.8207 0.49865 21.7352 1.16811 21.0658L10.2417 11.9922L1.16811 2.91867C0.49865 2.24919 0.49865 1.16377 1.16811 0.494286Z" fill="white"/>
</svg>
