<svg width="24" height="24" viewBox="0 0 24 24" fill="none" xmlns="http://www.w3.org/2000/svg">
<path d="M4 19.992C4 17.7829 5.79097 15.9919 8.00021 15.9919H12.0004V19.992C12.0004 22.2012 10.2094 23.9921 8.00021 23.9921C5.79097 23.9921 4 22.2012 4 19.992Z" fill="#24CB71"/>
<path d="M12 -0.0078125V7.99234H16.0002C18.2094 7.99234 20.0004 6.20143 20.0004 3.99226C20.0004 1.7831 18.2094 -0.0078125 16.0002 -0.0078125H12Z" fill="#FF7237"/>
<path d="M15.967 15.993C18.1763 15.993 19.9672 14.2021 19.9672 11.9929C19.9672 9.78369 18.1763 7.9928 15.967 7.9928C13.7578 7.9928 11.9668 9.78369 11.9668 11.9929C11.9668 14.2021 13.7578 15.993 15.967 15.993Z" fill="#00B6FF"/>
<path d="M4 3.99226C4 6.20143 5.79097 7.99234 8.00021 7.99234H12.0004V-0.0078125H8.00021C5.79097 -0.0078125 4 1.7831 4 3.99226Z" fill="#FF3737"/>
<path d="M4 11.9928C4 14.202 5.79097 15.9929 8.00021 15.9929H12.0004V7.99274H8.00021C5.79097 7.99274 4 9.78365 4 11.9928Z" fill="#874FFF"/>
</svg>
