<svg width="25" height="24" viewBox="0 0 25 24" fill="none" xmlns="http://www.w3.org/2000/svg">
<g clip-path="url(#clip0_105_706)">
<path d="M12.666 6.45373C11.5706 6.45373 10.4998 6.77855 9.58901 7.38713C8.67822 7.9957 7.96834 8.86069 7.54914 9.87271C7.12995 10.8847 7.02027 11.9983 7.23397 13.0727C7.44768 14.147 7.97516 15.1339 8.74973 15.9085C9.5243 16.683 10.5112 17.2105 11.5855 17.4242C12.6599 17.6379 13.7735 17.5283 14.7855 17.1091C15.7975 16.6899 16.6625 15.98 17.2711 15.0692C17.8797 14.1584 18.2045 13.0876 18.2045 11.9922C18.2029 10.5238 17.6189 9.11592 16.5806 8.07759C15.5423 7.03926 14.1344 6.45525 12.666 6.45373ZM12.666 15.6845C11.9357 15.6845 11.2219 15.4679 10.6147 15.0622C10.0075 14.6565 9.53423 14.0799 9.25477 13.4052C8.97531 12.7305 8.90219 11.9881 9.04465 11.2719C9.18712 10.5556 9.53878 9.89771 10.0552 9.38133C10.5715 8.86495 11.2294 8.51329 11.9457 8.37083C12.6619 8.22836 13.4043 8.30148 14.079 8.58094C14.7537 8.8604 15.3303 9.33365 15.7361 9.94085C16.1418 10.548 16.3583 11.2619 16.3583 11.9922C16.3583 12.9714 15.9693 13.9106 15.2769 14.603C14.5844 15.2955 13.6453 15.6845 12.666 15.6845ZM18.2045 -0.0078125H7.12755C5.41441 -0.00597993 3.77196 0.675376 2.56058 1.88675C1.3492 3.09813 0.667848 4.74058 0.666016 6.45373V17.5306C0.667848 19.2438 1.3492 20.8862 2.56058 22.0976C3.77196 23.309 5.41441 23.9904 7.12755 23.9922H18.2045C19.9176 23.9904 21.5601 23.309 22.7715 22.0976C23.9828 20.8862 24.6642 19.2438 24.666 17.5306V6.45373C24.6642 4.74058 23.9828 3.09813 22.7715 1.88675C21.5601 0.675376 19.9176 -0.00597993 18.2045 -0.0078125ZM22.8199 17.5306C22.8199 18.7547 22.3336 19.9287 21.468 20.7942C20.6025 21.6598 19.4286 22.146 18.2045 22.146H7.12755C5.90348 22.146 4.72954 21.6598 3.86398 20.7942C2.99843 19.9287 2.51217 18.7547 2.51217 17.5306V6.45373C2.51217 5.22965 2.99843 4.05571 3.86398 3.19016C4.72954 2.3246 5.90348 1.83834 7.12755 1.83834H18.2045C19.4286 1.83834 20.6025 2.3246 21.468 3.19016C22.3336 4.05571 22.8199 5.22965 22.8199 6.45373V17.5306ZM20.0506 5.99219C20.0506 6.26604 19.9694 6.53374 19.8173 6.76144C19.6651 6.98914 19.4489 7.16661 19.1959 7.27141C18.9429 7.3762 18.6645 7.40362 18.3959 7.3502C18.1273 7.29677 17.8806 7.1649 17.6869 6.97126C17.4933 6.77762 17.3614 6.5309 17.308 6.26231C17.2546 5.99372 17.282 5.71532 17.3868 5.46232C17.4916 5.20931 17.6691 4.99306 17.8968 4.84092C18.1245 4.68878 18.3922 4.60757 18.666 4.60757C19.0332 4.60757 19.3854 4.75345 19.6451 5.01312C19.9048 5.27278 20.0506 5.62496 20.0506 5.99219Z" fill="white"/>
</g>
<defs>
<clipPath id="clip0_105_706">
<rect width="24" height="24" fill="white" transform="translate(0.666016 -0.0078125)"/>
</clipPath>
</defs>
</svg>
