<svg width="24" height="24" viewBox="0 0 24 24" fill="none" xmlns="http://www.w3.org/2000/svg">
<g clip-path="url(#clip0_105_694)">
<path d="M22.2 -0.0078125H1.8C1.32261 -0.0078125 0.864773 0.18183 0.527208 0.519395C0.189642 0.856961 0 1.3148 0 1.79219V22.1922C0 22.6696 0.189642 23.1274 0.527208 23.465C0.864773 23.8025 1.32261 23.9922 1.8 23.9922H22.2C22.6774 23.9922 23.1352 23.8025 23.4728 23.465C23.8104 23.1274 24 22.6696 24 22.1922V1.79219C24 1.3148 23.8104 0.856961 23.4728 0.519395C23.1352 0.18183 22.6774 -0.0078125 22.2 -0.0078125ZM7.2 20.3922H3.6V9.59219H7.2V20.3922ZM5.4 7.49219C4.98742 7.48039 4.58746 7.34728 4.2501 7.10948C3.91274 6.87168 3.65294 6.53973 3.50315 6.15512C3.35337 5.77051 3.32025 5.35028 3.40793 4.94695C3.49561 4.54362 3.7002 4.17507 3.99614 3.88736C4.29207 3.59964 4.66624 3.40551 5.07188 3.32922C5.47752 3.25294 5.89664 3.29788 6.27688 3.45844C6.65712 3.61899 6.98162 3.88804 7.20983 4.23197C7.43804 4.57589 7.55983 4.97944 7.56 5.39219C7.55052 5.95661 7.318 6.49433 6.91326 6.88783C6.50852 7.28133 5.96446 7.49861 5.4 7.49219ZM20.4 20.3922H16.8V14.7042C16.8 13.0002 16.08 12.3882 15.144 12.3882C14.8696 12.4065 14.6015 12.4788 14.3551 12.601C14.1087 12.7231 13.8888 12.8928 13.7082 13.1002C13.5275 13.3076 13.3897 13.5487 13.3025 13.8095C13.2152 14.0703 13.1804 14.3458 13.2 14.6202C13.194 14.676 13.194 14.7323 13.2 14.7882V20.3922H9.6V9.59219H13.08V11.1522C13.431 10.6182 13.9133 10.1833 14.4806 9.88911C15.0479 9.59495 15.6813 9.45139 16.32 9.47219C18.18 9.47219 20.352 10.5042 20.352 13.8642L20.4 20.3922Z" fill="white"/>
</g>
<defs>
<clipPath id="clip0_105_694">
<rect width="24" height="24" fill="white" transform="translate(0 -0.0078125)"/>
</clipPath>
</defs>
</svg>
