<svg width="32" height="26" viewBox="0 0 32 26" fill="none" xmlns="http://www.w3.org/2000/svg">
<path d="M13.8906 3.28125C12.4219 4.125 11.2344 4.85938 10.3281 5.48438C9.42188 6.07813 8.5 6.875 7.5625 7.875C6.6875 8.8125 6.01562 9.79688 5.54688 10.8281C5.07812 11.8594 4.75 13.1875 4.5625 14.8125H6.8125C8.75 14.8125 10.2656 15.2969 11.3594 16.2656C12.4844 17.2031 13.0469 18.5938 13.0469 20.4375C13.0469 21.75 12.5469 22.9844 11.5469 24.1406C10.5781 25.2656 9.23438 25.8281 7.51562 25.8281C4.82812 25.8281 2.90625 24.9531 1.75 23.2031C0.59375 21.4219 0.015625 19.0938 0.015625 16.2188C0.015625 14.1875 0.453125 12.3437 1.32812 10.6875C2.20312 9 3.26562 7.5 4.51562 6.1875C5.79688 4.84375 7.15625 3.70312 8.59375 2.76562C10.0312 1.82812 11.2344 1.0625 12.2031 0.46875L13.8906 3.28125ZM31.2344 3.28125C29.7656 4.125 28.5781 4.85938 27.6719 5.48438C26.7656 6.07813 25.8438 6.875 24.9062 7.875C24 8.84375 23.3125 9.84375 22.8438 10.875C22.4062 11.875 22.0938 13.1875 21.9062 14.8125H24.1562C26.0938 14.8125 27.6094 15.2969 28.7031 16.2656C29.8281 17.2031 30.3906 18.5938 30.3906 20.4375C30.3906 21.75 29.8906 22.9844 28.8906 24.1406C27.9219 25.2656 26.5781 25.8281 24.8594 25.8281C22.1719 25.8281 20.25 24.9531 19.0938 23.2031C17.9375 21.4219 17.3594 19.0938 17.3594 16.2188C17.3594 14.1875 17.7969 12.3437 18.6719 10.6875C19.5469 9 20.6094 7.5 21.8594 6.1875C23.1406 4.84375 24.5 3.70312 25.9375 2.76562C27.375 1.82812 28.5781 1.0625 29.5469 0.46875L31.2344 3.28125Z" fill="#DC6775"/>
</svg>
