<svg width="24" height="24" viewBox="0 0 24 24" fill="none" xmlns="http://www.w3.org/2000/svg">
<g clip-path="url(#clip0_105_697)">
<path d="M24 11.5122C24 14.8221 22.7357 17.9964 20.4853 20.3369C18.2348 22.6773 15.1826 23.9922 12 23.9922C8.8174 23.9922 5.76516 22.6773 3.51472 20.3369C1.26428 17.9964 0 14.8221 0 11.5122C0 6.59223 2.74731 2.10905 6.99923 0.0798513C7.10939 0.0272176 7.22844 -0.00233532 7.34958 -0.0071204C7.47072 -0.0119055 7.59158 0.00817101 7.70526 0.051963C7.81894 0.095755 7.92321 0.162405 8.01213 0.248107C8.10104 0.333809 8.17285 0.436885 8.22346 0.55145C8.27407 0.666015 8.30249 0.789825 8.30709 0.915811C8.31169 1.0418 8.29239 1.16749 8.25028 1.28572C8.20817 1.40395 8.14408 1.51239 8.06168 1.60486C7.97927 1.69733 7.88016 1.77201 7.77 1.82465C4.17115 3.54304 1.84615 7.34463 1.84615 11.5122C1.84615 14.3129 2.91593 16.9989 4.82015 18.9792C6.72436 20.9596 9.30703 22.0722 12 22.0722C14.693 22.0722 17.2756 20.9596 19.1799 18.9792C21.0841 16.9989 22.1538 14.3129 22.1538 11.5122C22.1538 7.34463 19.8288 3.54304 16.23 1.82465C16.0075 1.71835 15.8348 1.52449 15.7497 1.28572C15.6647 1.04695 15.6743 0.782824 15.7765 0.55145C15.8787 0.320076 16.0652 0.140405 16.2947 0.051963C16.5243 -0.0364789 16.7783 -0.0264472 17.0008 0.0798513C21.2527 2.10905 24 6.59223 24 11.5122Z" fill="white"/>
</g>
<defs>
<clipPath id="clip0_105_697">
<rect width="24" height="24" fill="white" transform="translate(0 -0.0078125)"/>
</clipPath>
</defs>
</svg>
